Patient4_TMGait_0pt4_02_right_02_EMG.mot
version=1
nRows=23
nColumns=33
inDegrees=no
endheader
time	1LAddLong	2LGlutMax	3LGlutMed	4LIliopsoas	5LSemiMemb	6LBicFemLong	7LRecFem	8LVastMed	9LVastLat	10LGasMed	11LTibAnt	12lTibPost	13LPeroneusLong	14LSol	15LExtDigLong	16LFlexDigLong	17RAddLong	18RGlutMax	19RGlutMed	20RIliopsoas	21RSemiMemb	22RBicFemLong	23RRecFem	24RVastMed	25RVastLat	26RGasMed	27RTibAnt	28RTibPost	29RPeroneusLong	30RSol	31RExtDigLong	32RFlexDigLong
1.9	-0.011444	0.15945	0.11139	-0.002441	0.029449	0.043335	0.062256	-0.011749	0.040588	-0.045624	-0.044403	0.016479	0.4924	0.13367	0.006409	-0.002136	0.007477	-0.050659	-0.034485	-0.006409	0.046844	-0.040131	0.001678	-0.092468	-0.005646	-0.006714	-0.17319	-0.000916	-0.16632	-0.11368	-0.003967	-0.024414
1.901	-0.00412	0.15854	0.006866	0.009155	0.011749	0.041046	0.076599	-0.016937	0.080719	-0.054932	-0.080261	0.011902	0.63858	0.11505	0.00351	-0.013733	0.004425	-0.11108	-0.24628	-0.000763	0.050812	-0.025177	-0.028381	-0.098114	0.003204	-0.007019	-0.027466	0.001068	-0.13412	-0.1091	-0.003052	-0.018005
1.902	0.000153	0.14771	-0.058899	0.023651	0.015411	-0.002441	0.097809	-0.019226	0.17838	-0.01236	-0.17258	0.012665	0.2948	0.076752	-0.13245	-0.007477	0.009613	-0.079193	-0.059204	-0.1265	0.041809	-0.028381	-0.071106	-0.094757	0.018768	-0.008392	-0.038757	-0.001373	0.075836	-0.032043	-0.002441	-0.014954
1.903	-0.003204	0.15152	-0.11078	0.000305	0.015411	-0.009766	0.09964	-0.016479	0.21469	0.009613	-0.11673	0.030823	-0.36392	0.07019	-0.22186	-0.004425	-0.00824	-0.10208	0.20187	-0.065918	0.045471	-0.035706	-0.06012	-0.067139	0.012665	-0.009155	-0.13031	0.001221	0.073242	-0.022278	0.001068	-0.022278
1.904	-0.00946	0.14069	-0.15747	0.012054	0.016327	-0.003204	0.096436	-0.014496	0.25787	0.010529	-0.031128	0.043488	-0.56107	0.075836	-0.32455	-0.00061	0.003967	-0.12955	0.017548	0.085144	0.032654	-0.012207	-0.000153	-0.051422	0.007172	0.004883	0.17838	-0.001373	-0.017548	-0.038605	-0.002747	-0.04303
1.905	-0.004272	0.13153	-0.12314	0.016174	0.009003	-0.016022	0.037842	-0.001068	0.26794	-0.037079	0.082397	0.052948	-0.10559	0.057983	-0.18127	-0.003357	0.007782	-0.16617	-0.19394	-0.002136	0.03067	-0.010681	0.026855	-0.096436	-0.002289	0.000916	0.2214	0.000458	0.033112	-0.026398	-0.001831	-0.03006
1.906	-0.007019	0.12405	-0.17914	0.028076	0.023041	0.000305	-0.05249	-0.002441	0.24338	-0.00412	0.12054	0.056305	-0.48111	-0.09552	0.16205	-0.002136	0.006561	-0.13687	-0.2211	-0.2385	0.029602	-0.032349	0.024109	-0.11444	-0.002136	0.002899	0.072174	-0.000916	0.016174	-0.030975	-0.001678	-0.031586
1.907	0	0.15579	0.083771	0.017853	0.010986	-0.001221	-0.072174	-0.004272	0.025482	0.01297	0.22018	0.049591	-0.45746	-0.18967	0.12238	-0.006256	0.002289	-0.057068	-0.061188	-0.31952	0.037231	-0.025635	0.042114	-0.13275	-0.001984	0.003052	-0.12146	0.000305	-0.011139	0.04776	0.000153	-0.034332
1.908	0.011749	0.15366	0.1738	-0.011749	0.017242	-0.017548	0.041046	-0.02121	-0.32288	-0.029297	0.16342	0.046692	0.052032	-0.14633	0.015717	-0.005646	0.01297	-0.075531	-0.06958	-0.16113	0.032501	-0.017548	0.033264	-0.10681	-0.006561	-0.00061	-0.20462	-0.000153	-0.005188	0.075836	-0.000916	-0.02594
1.909	0.004272	0.11047	0.075684	-0.005188	0.014801	-0.032196	0.18387	-0.021362	-0.3244	-0.027771	-0.028839	0.039063	0.15778	-0.036774	0.007019	0.003815	-0.000305	-0.11185	0.008087	0.086975	0.029144	-0.026855	0.072784	-0.07782	-0.00824	0.006561	-0.2536	-0.006866	-0.000153	0.085754	-0.000305	-0.023651
1.91	0.011597	0.098877	0.159	0.010681	0.008087	-0.012817	0.18066	-0.019226	-0.23239	0.002289	-0.058136	0.037537	0.050354	-0.039215	-0.23056	-0.005951	0.000916	-0.11276	-0.012665	0.3006	0.03418	-0.025024	0.074463	-0.080719	0.004578	0.005188	-0.17425	0	-0.11719	0.054779	-0.001526	-0.031738
1.911	0.001221	0.069885	0.092773	0.03891	0.015869	-0.021515	0.12283	-0.011749	-0.15945	0.019379	-0.087433	0.029297	-0.23346	-0.12528	-0.32852	0.009766	0.006104	-0.1181	-0.089417	0.38162	0.032043	-0.003357	0.063934	-0.081177	0.003662	0.007019	-0.028076	-0.001068	-0.099792	0.038147	-0.001068	-0.024567
1.912	-0.003357	0.072632	0.03006	0.013428	0.017548	-0.004883	0.10071	-0.016022	-0.11429	-0.0177	0.007477	0.030212	-0.21805	-0.075073	0.27908	0.00351	0.005188	-0.12924	-0.12878	0.30029	0.03067	0.005188	0.060883	-0.092926	0.002594	0.010681	0.14435	0.000305	-0.22873	-0.009155	-0.003052	-0.02655
1.913	0.00061	0.10757	0.0383	-0.00885	0.013275	-0.013428	0.015106	-0.016479	-0.15503	-0.037537	0.13565	0.016327	0.012817	-0.018768	0.8049	-0.00351	0.00351	-0.12955	0.097504	0.19562	0.04303	-0.006409	0.091553	-0.10376	0.00412	0.007629	0.25803	-0.000153	-0.19638	-0.008545	-0.00412	-0.016174
1.914	0.010834	0.083466	-0.020599	0	0.010834	-0.059662	-0.17517	0.001831	-0.09613	-0.010071	-0.001678	0.021515	0.062561	0.008698	0.11856	-0.005035	0.011749	-0.098572	0.1326	0.16205	0.03418	0.007172	0.078125	-0.1091	0.000916	0.009918	0.26123	-0.000916	-0.001984	-0.00061	-0.003052	-0.033722
1.915	0.006409	0.12802	0.035706	0.016022	0.009766	-0.043488	-0.40146	0.012665	0.029297	-0.008087	-0.010071	0.012665	0.043488	0.048218	1.279	-0.01236	0.001526	-0.026703	-0.050964	0.10742	0.036621	0.005951	0.048828	-0.07309	0.006104	0.014038	0.06897	-0.003357	0.6247	-0.051117	-0.001526	-0.014038
1.916	0.008392	0.10529	0.080414	-0.018921	0.009918	-0.046387	-0.34164	0.024109	-0.020752	-0.046997	0.23697	0.009155	0.16815	0.12451	-0.51758	0.00473	0.007019	-0.07019	0.20309	0.074615	0.038757	0.006409	0.041656	-0.07843	0.018311	0.021667	0.062408	0.001984	0.071259	-0.050659	-0.00946	-0.018921
1.917	0.001373	0.077057	-0.0177	-0.004883	0.013733	-0.02655	-0.112	0.037231	0.015259	-0.077057	0.26581	0.014496	-0.014648	0.16159	-0.21988	-0.009155	0.008392	-0.013885	0.2417	0.050964	0.033417	0.016785	0.071564	-0.095673	0.009003	0.008087	0.23621	-0.003815	-0.10376	0.031281	-0.002747	-0.012665
1.918	-0.010071	0.074158	0.024567	0.008087	-0.00412	-0.003967	0.061646	0.018311	0.027924	-0.037079	0.063019	0.000763	-0.10117	0.08255	0.045166	-0.010376	0.001068	-0.037994	-0.20767	-0.004578	0.032349	0.013275	0.10239	-0.077209	0.000305	0.011292	0.4541	-0.001526	-0.015564	0.09079	-0.002899	-0.025482
1.919	-0.007935	0.032806	-0.019379	0.018158	0.013275	-0.025482	0.14511	0.018616	0.12711	-0.040588	-0.15686	0.004425	0.00473	0.097656	-0.50873	-0.023651	-0.000916	-0.07309	-0.40283	-0.030365	0.026245	0.023956	0.11841	-0.094299	0.001984	0.008545	0.33356	-0.003357	-0.035553	0.070496	0.00824	-0.01358
1.92	0.005188	0.027161	-0.036926	0.016937	0.012207	-0.028381	0.13657	0.000153	0.22049	-0.03479	-0.095978	0.011292	0.067902	0.057373	-0.70633	-0.02121	0.000153	0.012207	-0.26184	-0.031738	0.023956	0.025482	0.02533	-0.09964	-0.00473	0.011139	-0.23102	-0.001526	-0.2449	-0.045929	-0.006256	-0.016937
1.921	0.009766	0.030365	-0.1178	0.001678	0.024719	-0.023041	0.088654	-0.012512	0.10178	0.001984	-0.22614	0.002441	0.005951	0.064697	0.24414	-0.020142	-0.00061	0.008392	-0.078278	-0.059509	0.023499	0.015259	-0.015564	-0.068054	0.004883	0.009155	-0.44403	-0.002441	-0.52017	-0.030365	-0.007019	-0.017548
1.922	0.075226	0.036621	-0.12329	-0.004578	0.02533	-0.032654	0.13794	-0.009308	-0.000916	-0.007935	-0.18143	0.008545	0.040131	0.083771	0.34866	0.001221	-0.007935	0.027924	0.37872	-0.031891	0.027008	0.02533	-0.045624	-0.069733	-0.013275	0.00824	-0.32105	-0.001373	-0.057373	-0.003662	-0.004272	-0.016785
